<svg width="204" height="81" viewBox="0 0 204 81" fill="none" xmlns="http://www.w3.org/2000/svg">
<g id="logo--color">
<g id="slite">
<path id="slite_2" fill-rule="evenodd" clip-rule="evenodd" d="M58.4187 78.7672H74.1721V0.000183105H58.4187V78.7672ZM26.0394 0.000366211C11.5611 0.000366211 2.269 8.74513 2.269 21.4844C2.269 35.4475 13.1473 40.6286 22.3419 45.0077C29.0716 48.2129 34.8993 50.9885 34.8993 56.4635C34.8993 61.3217 31.5498 64.2366 25.9314 64.2366C19.1244 64.2366 14.9105 59.5943 12.8576 54.6282L0 60.8898C2.16095 67.0436 8.85989 78.3794 25.067 78.3794C40.8419 78.3794 50.3501 68.663 50.3501 55.3839C50.3501 41.851 39.3897 36.7478 30.1316 32.4372C23.3627 29.2856 17.5037 26.5577 17.5037 21.2685C17.5037 17.166 20.529 14.0352 25.7153 14.0352C32.3062 14.0352 35.1154 18.6775 36.7361 22.2401L49.3777 16.5183C47.5408 11.0123 41.2741 0.000366211 26.0394 0.000366211ZM129.309 78.7672H113.556V38.0706V22.3172V0.000183105H129.309V22.3172H145.063V38.0706H129.309V78.7672ZM101.74 78.7669H85.987V22.3172H101.74V78.7669ZM147.032 51.1986C147.032 66.4243 159.375 78.7671 174.6 78.7671V63.8652C168.274 63.8652 163.032 59.2281 162.086 53.1677H202.132C202.169 52.4209 202.169 51.6741 202.169 50.9273C202.169 32.5875 192.222 21.0045 174.708 21.0045C158.6 21.0045 147.032 33.66 147.032 50.6056C147.032 50.8039 147.033 51.0016 147.037 51.1986H147.032ZM163.441 42.6655H185.759C184.756 37.053 180.387 33.476 174.606 33.476C168.677 33.476 164.636 37.3466 163.441 42.6655Z" fill="#FDFDFD"/>
<rect id="shape" x="85.3304" width="15.7534" height="15.7534" fill="#FDFDFD"/>
<rect id="shape_2" x="186.415" y="63.0134" width="15.7534" height="15.7534" fill="#FDFDFD"/>
</g>
</g>
</svg>
